<svg width="16" height="16" viewBox="0 0 16 16" fill="none" xmlns="http://www.w3.org/2000/svg">
<path d="M14.6711 2.30263H11.3421V1.75987C11.3421 0.789474 10.5526 0 9.58226 0H6.41778C5.44739 0 4.65791 0.789474 4.65791 1.75987V2.30263H1.32897C1.08226 2.30263 0.884888 2.5 0.884888 2.74671C0.884888 2.99342 1.08226 3.19079 1.32897 3.19079H2.1316V13.625C2.1316 14.9342 3.19739 16 4.5066 16H11.4934C12.8026 16 13.8684 14.9342 13.8684 13.625V3.19079H14.6711C14.9178 3.19079 15.1151 2.99342 15.1151 2.74671C15.1151 2.5 14.9178 2.30263 14.6711 2.30263ZM5.54607 1.75987C5.54607 1.27961 5.93752 0.888158 6.41778 0.888158H9.58226C10.0625 0.888158 10.454 1.27961 10.454 1.75987V2.30263H5.54607V1.75987ZM12.9803 13.625C12.9803 14.4441 12.3125 15.1118 11.4934 15.1118H4.5066C3.68752 15.1118 3.01976 14.4441 3.01976 13.625V3.19079H12.9836V13.625H12.9803Z" fill="#C86818"/>
<path d="M7.99998 13.5197C8.24669 13.5197 8.44406 13.3224 8.44406 13.0757V5.22698C8.44406 4.98027 8.24669 4.7829 7.99998 4.7829C7.75327 4.7829 7.55591 4.98027 7.55591 5.22698V13.0724C7.55591 13.3191 7.75327 13.5197 7.99998 13.5197Z" fill="#C86818"/>
<path d="M5.10198 13.0296C5.34869 13.0296 5.54606 12.8322 5.54606 12.5855V5.71379C5.54606 5.46708 5.34869 5.26971 5.10198 5.26971C4.85527 5.26971 4.6579 5.46708 4.6579 5.71379V12.5855C4.6579 12.8322 4.85856 13.0296 5.10198 13.0296Z" fill="#C86818"/>
<path d="M10.8981 13.0296C11.1448 13.0296 11.3421 12.8322 11.3421 12.5855V5.71379C11.3421 5.46708 11.1448 5.26971 10.8981 5.26971C10.6513 5.26971 10.454 5.46708 10.454 5.71379V12.5855C10.454 12.8322 10.6513 13.0296 10.8981 13.0296Z" fill="#C86818"/>
</svg>
