<svg width="16" height="16" viewBox="0 0 16 16" fill="none" xmlns="http://www.w3.org/2000/svg">
<path d="M14.6709 2.30263H11.342V1.75987C11.342 0.789474 10.5525 0 9.58213 0H6.41766C5.44727 0 4.65779 0.789474 4.65779 1.75987V2.30263H1.32884C1.08213 2.30263 0.884766 2.5 0.884766 2.74671C0.884766 2.99342 1.08213 3.19079 1.32884 3.19079H2.13148V13.625C2.13148 14.9342 3.19727 16 4.50648 16H11.4933C12.8025 16 13.8683 14.9342 13.8683 13.625V3.19079H14.6709C14.9177 3.19079 15.115 2.99342 15.115 2.74671C15.115 2.5 14.9177 2.30263 14.6709 2.30263ZM5.54595 1.75987C5.54595 1.27961 5.9374 0.888158 6.41766 0.888158H9.58213C10.0624 0.888158 10.4538 1.27961 10.4538 1.75987V2.30263H5.54595V1.75987ZM12.9802 13.625C12.9802 14.4441 12.3124 15.1118 11.4933 15.1118H4.50648C3.6874 15.1118 3.01963 14.4441 3.01963 13.625V3.19079H12.9834V13.625H12.9802Z" fill="#C86818"/>
<path d="M7.99998 13.5198C8.24669 13.5198 8.44406 13.3224 8.44406 13.0757V5.22704C8.44406 4.98033 8.24669 4.78296 7.99998 4.78296C7.75327 4.78296 7.55591 4.98033 7.55591 5.22704V13.0724C7.55591 13.3191 7.75327 13.5198 7.99998 13.5198Z" fill="#C86818"/>
<path d="M5.10179 13.0297C5.3485 13.0297 5.54587 12.8323 5.54587 12.5856V5.71385C5.54587 5.46714 5.3485 5.26978 5.10179 5.26978C4.85508 5.26978 4.65771 5.46714 4.65771 5.71385V12.5856C4.65771 12.8323 4.85837 13.0297 5.10179 13.0297Z" fill="#C86818"/>
<path d="M10.8979 13.0297C11.1446 13.0297 11.342 12.8323 11.342 12.5856V5.71385C11.342 5.46714 11.1446 5.26978 10.8979 5.26978C10.6512 5.26978 10.4539 5.46714 10.4539 5.71385V12.5856C10.4539 12.8323 10.6512 13.0297 10.8979 13.0297Z" fill="#C86818"/>
</svg>
