<svg width="46" height="46" viewBox="0 0 46 46" fill="none" xmlns="http://www.w3.org/2000/svg">
<circle cx="23" cy="23" r="22.5" fill="#F8C51D" stroke="black"/>
<path d="M18.3346 22.6515L17.9811 23.0051L18.3347 23.3586L27.303 32.327L27.3031 32.3271C27.6195 32.6434 27.6196 33.1599 27.3031 33.4764C27.3031 33.4765 27.303 33.4765 27.303 33.4765L26.5165 34.2628L26.5164 34.263C26.3634 34.416 26.1613 34.5 25.9417 34.5C25.7217 34.5 25.5197 34.416 25.3671 34.2631L25.3668 34.2628L14.6866 23.5832L14.6865 23.5831C14.5335 23.4302 14.4496 23.2277 14.4503 23.0059L14.4503 23.0031C14.4496 22.7831 14.5335 22.5801 14.6865 22.4273L14.6866 22.4271L25.3768 11.7372L25.3771 11.7369C25.5297 11.584 25.7317 11.5 25.9514 11.5C26.1713 11.5 26.3736 11.5841 26.5258 11.7367L26.5263 11.7373L27.3131 12.5236L27.3131 12.5236C27.4657 12.6762 27.5498 12.8782 27.5498 13.0983C27.5498 13.3184 27.4657 13.5204 27.3134 13.6724L27.313 13.6728L18.3346 22.6515Z" fill="#F8C51D" stroke="black"/>
</svg>
