<svg width="46" height="46" fill="none" xmlns="http://www.w3.org/2000/svg"><circle cx="23" cy="23" r="22.5" fill="#F8C51D" stroke="#000"/><path d="M30.5 21.544v.448l.445.05A6.249 6.249 0 0136.5 28.25a6.252 6.252 0 01-5.555 6.209l-.37.041H13.5v-23h13.103l3.897 3.895v6.15zm-3.648-9.088l-.854-.853v1.207h.5-.5v2.69s.147-.354.5-.5v1h3.899l-.854-.854-2.691-2.69zM14 33.5v.5h13.428l-1.102-.89a6.247 6.247 0 013.229-11.07l.445-.048v-5.493h-4.5V12H14v21.5zm10.586-5.251v.002a5.674 5.674 0 005.663 5.661h.002a5.673 5.673 0 005.661-5.66v-.003a5.674 5.674 0 00-5.66-5.663h-.003a5.674 5.674 0 00-5.663 5.663z" fill="#F8C51D" stroke="#000"/><path d="M30.502 27.5v.5H33.5v.5h-2.998v3H30v-3h-3V28h3v-3h.502v2.5z" fill="#F8C51D" stroke="#000"/></svg>