<svg width="46" height="46" viewBox="0 0 46 46" fill="none" xmlns="http://www.w3.org/2000/svg">
<circle cx="23" cy="23" r="22.5" fill="#F8C51D" stroke="black"/>
<path d="M30.5 21.5443V21.9921L30.9451 22.0412C34.0689 22.3863 36.4985 25.0323 36.5 28.25C36.4985 31.466 34.069 34.1116 30.9448 34.4588L30.5741 34.5H13.5V11.5H26.6034L30.5 15.3952V21.5443ZM26.852 12.4561L25.9985 11.6029V12.8098L26.4985 12.8098L25.9985 12.8098V12.8099V12.8102V12.8117V12.8175V12.84V12.9253V13.2301V14.1549V15.0796V15.3844V15.4698V15.4923V15.498V15.4995V15.4999V15.4999C25.9985 15.4999 26.145 15.1464 26.4985 15V15.5V16H29.1895H30.3968L29.543 15.1464L26.852 12.4561ZM14 33.5V34H14.5H26.0125H27.4282L26.3265 33.1109C24.9074 31.9656 24 30.214 24 28.25C24 25.0333 26.4294 22.387 29.555 22.0412L30 21.992V21.5443V16.9992V16.4992H29.5H25.5V12.4985V11.9985H25H14.5H14V12.4985V33.5ZM24.5862 28.2488L24.5863 28.2512C24.5937 31.3757 27.1229 33.9048 30.2488 33.9123L30.2512 33.9122C33.3757 33.9048 35.9048 31.3757 35.9123 28.2512L35.9122 28.2488C35.9048 25.1229 33.3757 22.5937 30.2512 22.5862L30.2488 22.5863C27.1228 22.5937 24.5937 25.1228 24.5862 28.2488Z" fill="#F8C51D" stroke="black"/>
<path d="M30.5015 27.5V28H31.0015H33.5V28.5H31.0015H30.5015V29V31.5H30V29V28.5H29.5H27V28H29.5H30V27.5V25H30.5015V27.5Z" fill="#F8C51D" stroke="black"/>
</svg>
