<svg width="24" height="24" viewBox="0 0 24 24" fill="none" xmlns="http://www.w3.org/2000/svg">
<path d="M23.2332 21.8602L17.5212 15.9194C18.9899 14.1735 19.7945 11.9768 19.7945 9.68999C19.7945 4.34701 15.4475 0 10.1046 0C4.76158 0 0.414566 4.34701 0.414566 9.68999C0.414566 15.033 4.76158 19.38 10.1046 19.38C12.1104 19.38 14.0218 18.775 15.6561 17.6265L21.4115 23.6124C21.6521 23.8622 21.9756 24 22.3224 24C22.6506 24 22.9619 23.8749 23.1983 23.6474C23.7005 23.1641 23.7165 22.3628 23.2332 21.8602ZM10.1046 2.52782C14.0539 2.52782 17.2667 5.74069 17.2667 9.68999C17.2667 13.6393 14.0539 16.8522 10.1046 16.8522C6.15525 16.8522 2.94239 13.6393 2.94239 9.68999C2.94239 5.74069 6.15525 2.52782 10.1046 2.52782Z" fill="#F8C51D"/>
</svg>
